<?xml version="1.0"?>
<svg xmlns="http://www.w3.org/2000/svg" xmlns:xlink="http://www.w3.org/1999/xlink" xmlns:svgjs="http://svgjs.com/svgjs" version="1.1" width="512" height="512" x="0" y="0" viewBox="0 0 389.12 389.12" style="enable-background:new 0 0 512 512" xml:space="preserve" class=""><g>
<polyline xmlns="http://www.w3.org/2000/svg" style="" points="58.027,107.87 58.027,6.827 284.744,6.827 331.093,47.787 331.093,382.293 58.027,382.293   58.027,150.183 " fill="#ffffff" data-original="#ffffff" class=""/>
<path xmlns="http://www.w3.org/2000/svg" style="" d="M331.093,389.12H58.027c-3.77,0-6.827-3.057-6.827-6.827v-232.11c0-3.77,3.057-6.827,6.827-6.827  s6.827,3.057,6.827,6.827v225.283h259.413V50.864l-42.107-37.21H64.853v94.217c0,3.77-3.057,6.827-6.827,6.827  S51.2,111.64,51.2,107.87V6.827C51.2,3.057,54.257,0,58.027,0h226.717c1.667,0,3.273,0.609,4.519,1.71l46.35,40.96  c1.468,1.297,2.307,3.161,2.307,5.117v334.507C337.92,386.063,334.863,389.12,331.093,389.12z" fill="#602f75" data-original="#602f75" class=""/>
<g xmlns="http://www.w3.org/2000/svg">
	<rect x="78.507" y="177.493" style="" width="225.28" height="116.053" fill="#00e7ff" data-original="#00e7ff" class=""/>
	<polygon style="" points="331.093,47.787 283.307,47.787 283.307,6.827  " fill="#eaeaea" data-original="#eaeaea"/>
</g>
<path xmlns="http://www.w3.org/2000/svg" style="" d="M331.093,54.613h-47.787c-3.77,0-6.827-3.057-6.827-6.827V6.827c0-2.666,1.553-5.086,3.973-6.204  c2.43-1.106,5.274-0.71,7.296,1.021l47.787,40.96c2.169,1.86,2.951,4.873,1.959,7.554C336.503,52.833,333.95,54.613,331.093,54.613z   M290.133,40.96h22.508l-22.508-19.29V40.96z" fill="#602f75" data-original="#602f75" class=""/>
<rect xmlns="http://www.w3.org/2000/svg" x="58.027" y="150.187" style="" width="225.28" height="116.053" fill="#ea3457" data-original="#ea3457" class=""/>
<path xmlns="http://www.w3.org/2000/svg" style="" d="M283.307,273.067H58.027c-3.77,0-6.827-3.057-6.827-6.827V150.187c0-3.77,3.057-6.827,6.827-6.827  h225.28c3.77,0,6.827,3.057,6.827,6.827V266.24C290.133,270.01,287.077,273.067,283.307,273.067z M64.853,259.413H276.48v-102.4  H64.853V259.413z" fill="#602f75" data-original="#602f75" class=""/>
<g xmlns="http://www.w3.org/2000/svg">
	<path style="" d="M146.666,185.306c0-1.147,0.06-2.266,0.179-3.36s0.399-2.074,0.84-2.941s1.101-1.567,1.98-2.099   c0.879-0.532,2.094-0.8,3.64-0.8c1.546,0,2.76,0.266,3.64,0.8s1.539,1.234,1.98,2.099s0.72,1.847,0.84,2.941   s0.179,2.214,0.179,3.36v37.6c0,1.174-0.053,2.307-0.16,3.4c-0.107,1.092-0.381,2.074-0.819,2.941c-0.439,0.867-1.106,1.56-2,2.08   s-2.111,0.78-3.657,0.78s-2.76-0.259-3.64-0.78c-0.881-0.521-1.539-1.213-1.98-2.08s-0.72-1.847-0.84-2.941   c-0.119-1.094-0.179-2.227-0.179-3.4v-37.6H146.666z" fill="#ffffff" data-original="#ffffff" class=""/>
	<path style="" d="M196.427,176.108c1.067,0,2.14,0.039,3.22,0.119c1.08,0.08,2.06,0.307,2.941,0.679   c0.881,0.372,1.594,0.94,2.14,1.7c0.546,0.759,0.819,1.819,0.819,3.18c0,1.333-0.273,2.381-0.819,3.14   c-0.546,0.759-1.26,1.326-2.14,1.7c-0.881,0.374-1.86,0.606-2.941,0.7c-1.08,0.094-2.154,0.14-3.22,0.14h-4.081v35.519   c0,1.147-0.034,2.266-0.101,3.36c-0.067,1.094-0.287,2.067-0.66,2.92c-0.374,0.853-0.973,1.539-1.801,2.06   c-0.828,0.521-1.998,0.782-3.519,0.782c-1.521,0-2.693-0.259-3.519-0.78c-0.826-0.521-1.427-1.207-1.801-2.06   c-0.374-0.853-0.594-1.826-0.66-2.92c-0.067-1.094-0.101-2.214-0.101-3.36v-35.519h-4.081c-1.067,0-2.14-0.046-3.22-0.14   c-1.08-0.094-2.06-0.326-2.941-0.7c-0.881-0.374-1.594-0.94-2.14-1.7c-0.546-0.759-0.819-1.807-0.819-3.14   c0-1.36,0.273-2.42,0.819-3.18c0.546-0.759,1.26-1.326,2.14-1.7c0.881-0.374,1.86-0.601,2.941-0.679s2.154-0.119,3.22-0.119h20.323   V176.108z" fill="#ffffff" data-original="#ffffff" class=""/>
</g>
<g xmlns="http://www.w3.org/2000/svg">
</g>
<g xmlns="http://www.w3.org/2000/svg">
</g>
<g xmlns="http://www.w3.org/2000/svg">
</g>
<g xmlns="http://www.w3.org/2000/svg">
</g>
<g xmlns="http://www.w3.org/2000/svg">
</g>
<g xmlns="http://www.w3.org/2000/svg">
</g>
<g xmlns="http://www.w3.org/2000/svg">
</g>
<g xmlns="http://www.w3.org/2000/svg">
</g>
<g xmlns="http://www.w3.org/2000/svg">
</g>
<g xmlns="http://www.w3.org/2000/svg">
</g>
<g xmlns="http://www.w3.org/2000/svg">
</g>
<g xmlns="http://www.w3.org/2000/svg">
</g>
<g xmlns="http://www.w3.org/2000/svg">
</g>
<g xmlns="http://www.w3.org/2000/svg">
</g>
<g xmlns="http://www.w3.org/2000/svg">
</g>
</g></svg>
