<svg height="512pt" viewBox="-25 0 512 512" width="512pt" xmlns="http://www.w3.org/2000/svg"><path d="m337.507812 94.671875c0-61.527344-49.191406-92.597656-100.511718-94.671875h-11.144532c-16.199218.640625-32.285156 4.175781-46.730468 10.511719-32.285156 14.164062-56.617188 42.402343-56.617188 84.160156 93.640625-.847656 85.859375 88.660156 215.003906 0zm0 0" fill="#808080" fill-rule="evenodd"/><path d="m337.507812 94.671875c-128.761718 48.886719-121.128906-25.289063-215.003906 0v58.347656c0 25.171875 15.324219 54.519531 38.222656 76.507813 50.066407 43.539062 95.949219 40.269531 138.53125.03125 22.894532-21.992188 38.25-51.367188 38.25-76.539063zm0 0" fill="#ffdda6" fill-rule="evenodd"/><path d="m193.890625 166.179688c-4.304687 0-7.796875-3.488282-7.796875-7.789063v-8.699219c0-4.304687 3.492188-7.789062 7.796875-7.789062s7.792969 3.484375 7.792969 7.789062v8.699219c0 4.304687-3.488282 7.789063-7.792969 7.789063zm0 0" fill="#666"/><path d="m266.269531 166.179688c-4.304687 0-7.796875-3.488282-7.796875-7.789063v-8.699219c0-4.304687 3.492188-7.789062 7.796875-7.789062 4.304688 0 7.792969 3.484375 7.792969 7.789062v8.699219c0 4.304687-3.488281 7.789063-7.792969 7.789063zm0 0" fill="#666"/><path d="m230.0625 512 26.730469-124.722656-26.730469-145.804688-69.335938-11.945312-108.847656-18.746094c-12.078125-2.074219-21.960937 6.367188-21.960937 18.804688v225.351562c0 12.414062 9.882812 24.269531 21.960937 26.339844zm0 0" fill="#e6e6e6" fill-rule="evenodd"/><path d="m408.277344 210.78125-109.019532 18.777344-69.195312 11.914062v270.527344l178.214844-30.722656c12.078125-2.070313 21.960937-13.925782 21.960937-26.339844 0-81.09375 0-134.414062 0-225.351562.003907-12.4375-9.882812-20.878907-21.960937-18.804688zm0 0" fill="#c2c7cc" fill-rule="evenodd"/><path d="m462 343.007812c0-17.433593-14.300781-31.710937-31.757812-31.710937h-13.890626c-9.828124 0-17.871093 8.027344-17.871093 17.839844v57.351562c0 9.8125 8.042969 17.84375 17.871093 17.84375h13.890626c17.457031 0 31.757812-14.25 31.757812-31.683593zm0 0" fill="#fcc368" fill-rule="evenodd"/><path d="m63.519531 393.382812v-57.324218c0-9.84375-8.042969-17.875-17.898437-17.875h-13.863282c-.613281 0-1.226562.03125-1.839843.058594-16.640625.964843-29.917969 14.835937-29.917969 31.65625v29.640624c0 16.820313 13.277344 30.691407 29.917969 31.65625.613281.027344 1.226562.058594 1.839843.058594h13.863282c9.855468 0 17.898437-8.03125 17.898437-17.871094zm0 0" fill="#fcc368" fill-rule="evenodd"/><g fill="#666"><path d="m180.210938 371.414062c-.472657 0-.949219-.042968-1.429688-.132812l-81.941406-15.183594c-4.234375-.785156-7.03125-4.847656-6.246094-9.078125s4.855469-7.015625 9.085938-6.238281l81.945312 15.183594c4.230469.785156 7.027344 4.847656 6.242188 9.078125-.695313 3.753906-3.972657 6.371093-7.65625 6.371093zm0 0"/><path d="m180.210938 412.472656c-.472657 0-.949219-.042968-1.429688-.132812l-81.941406-15.183594c-4.234375-.785156-7.03125-4.847656-6.246094-9.078125s4.855469-7.019531 9.085938-6.238281l81.945312 15.183594c4.230469.785156 7.027344 4.847656 6.242188 9.078124-.695313 3.75-3.972657 6.371094-7.65625 6.371094zm0 0"/><path d="m180.210938 453.53125c-.472657 0-.949219-.042969-1.429688-.132812l-104.695312-19.390626c-4.230469-.78125-7.027344-4.847656-6.242188-9.078124.785156-4.230469 4.851562-7.019532 9.085938-6.238282l104.691406 19.390625c4.234375.78125 7.03125 4.847657 6.246094 9.078125-.695313 3.75-3.972657 6.371094-7.65625 6.371094zm0 0"/><path d="m284.652344 289.53125c-3.679688 0-6.957032-2.617188-7.652344-6.367188-.785156-4.230468 2.007812-8.296874 6.238281-9.082031l109.199219-20.265625c4.226562-.789062 8.300781 2.007813 9.089844 6.238282.785156 4.226562-2.007813 8.292968-6.242188 9.078124l-109.199218 20.265626c-.480469.089843-.957032.132812-1.433594.132812zm0 0"/><path d="m284.652344 330.589844c-3.679688 0-6.957032-2.621094-7.652344-6.371094-.785156-4.226562 2.007812-8.292969 6.242188-9.078125l81.910156-15.1875c4.230468-.78125 8.300781 2.011719 9.085937 6.238281.785157 4.230469-2.007812 8.296875-6.242187 9.082032l-81.910156 15.183593c-.480469.089844-.960938.132813-1.433594.132813zm0 0"/><path d="m284.652344 371.648438c-3.679688 0-6.957032-2.617188-7.652344-6.367188-.789062-4.230469 2.007812-8.296875 6.238281-9.082031l77.410157-14.367188c4.226562-.792969 8.300781 2.007813 9.085937 6.234375.785156 4.230469-2.007813 8.296875-6.238281 9.082032l-77.410156 14.367187c-.480469.089844-.957032.132813-1.433594.132813zm0 0"/></g><path d="m178.125 280.195312-100.191406-16.96875c-2.628906-.4375-4.792969 1.433594-4.792969 4.117188v36.535156c0 2.714844 2.164063 5.285156 4.792969 5.722656l100.191406 16.964844c2.632812.4375 4.796875-1.429687 4.796875-4.117187v-36.53125c0-2.714844-2.164063-5.285157-4.796875-5.722657zm0 0" fill="#64b0d9" fill-rule="evenodd"/><path d="m361.957031 390.257812-72.644531 11.914063c-2.574219.40625-4.648438 2.832031-4.648438 5.371094v34.285156c0 2.539063 2.074219 4.261719 4.648438 3.855469l72.644531-11.886719c2.542969-.4375 4.621094-2.863281 4.621094-5.402344v-34.28125c-.003906-2.542969-2.078125-4.265625-4.621094-3.855469zm0 0" fill="#64b0d9" fill-rule="evenodd"/><path d="m337.507812 94.671875c0-61.527344-49.191406-92.597656-100.511718-94.671875h-11.144532c-11.636718.46875-23.191406 2.394531-34.15625 5.8125 52.640626.726562 104.199219 31.800781 104.199219 94.789062v6.890626c12.105469-2.6875 25.820313-6.832032 41.613281-12.820313zm0 0" fill="#666" fill-rule="evenodd"/><path d="m337.507812 153.019531v-58.347656c-15.792968 5.988281-29.507812 10.132813-41.617187 12.820313v51.453124c0 21.84375-11.550781 53.851563-29.59375 76.277344l32.957031-5.664062c22.898438-21.992188 38.253906-51.367188 38.253906-76.539063zm0 0" fill="#fcc368" fill-rule="evenodd"/></svg>